<svg id="blackjack_x5F_hand" enable-background="new 0 0 300 300" height="512" viewBox="0 0 300 300" width="512" xmlns="http://www.w3.org/2000/svg"><circle cx="119.917" cy="133.326" fill="#efefd2" r="92"/><path d="m165.06 261.326h-85.24c-6.574 0-11.903-5.329-11.903-11.903v-133.24c0-5.996 4.861-10.857 10.857-10.857h85.24c6.574 0 11.903 5.329 11.903 11.903v133.24c0 5.996-4.861 10.857-10.857 10.857z" fill="#fff"/><g fill="#4c241d"><path d="m165.061 265.326h-85.242c-8.77 0-15.902-7.133-15.902-15.902v-133.24c0-8.193 6.664-14.857 14.855-14.857h85.242c8.77 0 15.902 7.133 15.902 15.902v133.24c.001 8.193-6.663 14.857-14.855 14.857zm-86.289-156c-3.781 0-6.855 3.076-6.855 6.857v133.24c0 4.357 3.547 7.902 7.902 7.902h85.242c3.781 0 6.855-3.076 6.855-6.857v-133.24c0-4.357-3.547-7.902-7.902-7.902z"/><path d="m137.917 57.326c-7.719 0-14-6.281-14-14s6.281-14 14-14 14 6.281 14 14-6.281 14-14 14zm0-20c-3.309 0-6 2.691-6 6s2.691 6 6 6 6-2.691 6-6-2.691-6-6-6z"/><circle cx="37.917" cy="223.326" r="4.529"/><circle cx="253.917" cy="55.326" r="4.529"/><path d="m240.569 270.674c-1.023 0-2.047-.391-2.828-1.172-1.562-1.562-1.562-4.094 0-5.656l14.695-14.695c1.562-1.562 4.094-1.562 5.656 0s1.562 4.094 0 5.656l-14.695 14.695c-.781.781-1.804 1.172-2.828 1.172z"/><path d="m255.265 270.674c-1.023 0-2.047-.391-2.828-1.172l-14.695-14.695c-1.562-1.562-1.562-4.094 0-5.656s4.094-1.562 5.656 0l14.695 14.695c1.562 1.562 1.562 4.094 0 5.656-.782.781-1.805 1.172-2.828 1.172z"/><path d="m36.569 78.674c-1.023 0-2.047-.391-2.828-1.172-1.562-1.562-1.562-4.094 0-5.656l14.695-14.696c1.562-1.562 4.094-1.562 5.656 0s1.562 4.094 0 5.656l-14.695 14.696c-.781.781-1.804 1.172-2.828 1.172z"/><path d="m51.265 78.674c-1.023 0-2.047-.391-2.828-1.172l-14.696-14.695c-1.562-1.562-1.562-4.094 0-5.656s4.094-1.562 5.656 0l14.695 14.695c1.562 1.562 1.562 4.094 0 5.656-.781.781-1.804 1.172-2.827 1.172z"/><circle cx="142.345" cy="205.388" r="4.884"/></g><path d="m119.545 156.163s-23.628 25.001-23.628 31.744 5.877 12.209 13.127 12.209c4.314 0 8.108-1.962 10.501-4.95 2.393 2.989 6.187 4.95 10.501 4.95 7.25 0 13.127-5.466 13.127-12.209 0-6.742-23.628-31.744-23.628-31.744z" fill="#f53e28"/><path d="m130.046 204.117c-3.871 0-7.531-1.219-10.5-3.434-2.973 2.213-6.633 3.434-10.504 3.434-9.441 0-17.125-7.271-17.125-16.209 0-7.523 17.289-26.627 24.723-34.492 1.508-1.598 4.305-1.598 5.812 0 7.434 7.865 24.723 26.969 24.723 34.492 0 8.938-7.684 16.209-17.129 16.209zm-10.5-12.951c1.215 0 2.363.553 3.125 1.502 1.754 2.191 4.441 3.449 7.375 3.449 5.035 0 9.129-3.682 9.129-8.209-.359-3.156-9.953-15.293-19.629-25.869-9.676 10.578-19.27 22.721-19.633 25.938.004 4.459 4.098 8.141 9.129 8.141 2.934 0 5.625-1.258 7.383-3.453.758-.948 1.906-1.499 3.121-1.499z" fill="#4c241d"/><path d="m207.604 243.406-80.041-29.314c-6.173-2.261-9.344-9.097-7.083-15.27l45.822-125.113c2.062-5.63 8.298-8.523 13.929-6.461l80.041 29.314c6.173 2.261 9.344 9.097 7.083 15.27l-45.822 125.113c-2.063 5.63-8.299 8.523-13.929 6.461z" fill="#fff"/><path d="m211.323 248.068c-1.695 0-3.414-.291-5.094-.906l-80.043-29.314c-8.234-3.018-12.48-12.17-9.465-20.402l45.82-125.113c2.82-7.693 11.383-11.658 19.062-8.842l80.043 29.314c8.234 3.018 12.48 12.17 9.465 20.402l-45.82 125.113c-2.202 6.012-7.909 9.748-13.968 9.748zm-2.344-8.418c3.562 1.301 7.496-.529 8.801-4.082l45.816-125.111c1.5-4.092-.609-8.641-4.699-10.141l-80.043-29.314c-3.555-1.291-7.496.531-8.801 4.082l-45.816 125.111c-1.5 4.092.609 8.641 4.699 10.141z" fill="#4c241d"/><circle cx="209.954" cy="230.149" fill="#4c241d" r="4.884"/><circle cx="161.954" cy="246.149" fill="#4c241d" r="4.884"/><path d="m181.722 186.811c-.457 0-.922-.08-1.375-.246-2.074-.76-3.141-3.057-2.383-5.131l6.879-18.779c.762-2.074 3.066-3.139 5.133-2.381 2.074.76 3.141 3.057 2.383 5.131l-6.879 18.779c-.594 1.621-2.129 2.627-3.758 2.627z" fill="#4c241d"/><path d="m201.031 129.004s-30.785 15.351-33.104 21.682c-2.319 6.332 1.32 13.486 8.127 15.979 4.051 1.484 8.288.946 11.563-1.037 1.219 3.629 4.107 6.776 8.158 8.26 6.807 2.493 14.206-.618 16.525-6.95 2.32-6.332-11.269-37.934-11.269-37.934z" fill="#6b4f5b"/><path d="m200.589 178.752c-2.078 0-4.168-.367-6.188-1.107-3.637-1.332-6.656-3.736-8.684-6.836-3.543 1.057-7.402.947-11.039-.387-4.246-1.555-7.684-4.572-9.676-8.494-2.043-4.02-2.34-8.5-.828-12.617 2.582-7.062 25.387-19.057 35.07-23.887.984-.49 2.129-.553 3.16-.176 1.035.379 1.863 1.166 2.301 2.176 4.273 9.941 13.938 33.826 11.348 40.891-1.504 4.115-4.621 7.346-8.781 9.096-2.125.894-4.394 1.341-6.683 1.341zm-12.973-17.123c.465 0 .93.08 1.375.244 1.141.418 2.031 1.33 2.418 2.482.895 2.662 2.988 4.768 5.742 5.777 2.348.855 4.84.818 7.02-.098 2.086-.877 3.637-2.465 4.371-4.473.75-3.088-4.082-17.783-9.531-31.041-12.723 6.605-25.906 14.707-27.352 17.604-.711 1.945-.551 4.162.473 6.178 1.078 2.113 2.957 3.75 5.297 4.607 2.762 1.014 5.715.75 8.117-.703.629-.382 1.347-.577 2.07-.577z" fill="#4c241d"/><path d="m89.917 145.326c-5.516 0-10-4.486-10-10 0-2.209 1.789-4 4-4s4 1.791 4 4c0 1.104.898 2 2 2s2-.896 2-2v-18c0-2.209 1.789-4 4-4s4 1.791 4 4v18c0 5.514-4.484 10-10 10z" fill="#4c241d"/><path d="m187.917 113.326c-2.211 0-4-1.791-4-4v-12.597l-8.285 10.357c-1.379 1.727-3.895 2.01-5.625.625-1.723-1.379-2.004-3.896-.625-5.621l15.41-19.262c1.066-1.326 2.848-1.834 4.449-1.277 1.602.562 2.676 2.076 2.676 3.775v24c0 2.209-1.789 4-4 4z" fill="#4c241d"/><path d="m187.917 109.328c-.453 0-.914-.078-1.367-.242l-12.031-4.371c-2.074-.754-3.148-3.049-2.391-5.125.754-2.078 3.047-3.148 5.125-2.395l12.031 4.371c2.074.754 3.148 3.049 2.391 5.125-.59 1.627-2.125 2.637-3.758 2.637z" fill="#4c241d"/></svg>