<svg id="poker_x5F_chips" enable-background="new 0 0 300 300" height="512" viewBox="0 0 300 300" width="512" xmlns="http://www.w3.org/2000/svg"><circle cx="162.735" cy="135.224" fill="#efefd2" r="92"/><path d="m46.735 148.359c0-13.79 29.773-24.969 66.5-24.969s66.5 11.179 66.5 24.969v49.896c0 13.79-29.773 24.969-66.5 24.969s-66.5-11.179-66.5-24.969z" fill="#9dc1e4"/><path d="m113.235 227.224c-34.176 0-70.5-10.152-70.5-28.969v-49.896c0-18.816 36.324-28.969 70.5-28.969s70.5 10.152 70.5 28.969v49.896c0 18.816-36.324 28.969-70.5 28.969zm0-99.834c-35.77 0-62.5 11.07-62.5 20.969v49.896c0 9.898 26.73 20.969 62.5 20.969s62.5-11.07 62.5-20.969v-49.896c0-9.899-26.73-20.969-62.5-20.969z" fill="#4c241d"/><path d="m179.736 148.359c0 13.79-29.773 24.969-66.5 24.969s-66.5-11.179-66.5-24.969" fill="#9dc1e4"/><path d="m113.235 177.327c-34.176 0-70.5-10.152-70.5-28.969 0-2.209 1.789-4 4-4s4 1.791 4 4c0 9.898 26.73 20.969 62.5 20.969s62.5-11.07 62.5-20.969c0-2.209 1.789-4 4-4s4 1.791 4 4c0 18.817-36.324 28.969-70.5 28.969z" fill="#4c241d"/><path d="m113.235 211.435c-40.191 0-70.5-12.906-70.5-30.021 0-2.209 1.789-4 4-4s4 1.791 4 4c0 10.416 25.668 22.021 62.5 22.021s62.5-11.605 62.5-22.021c0-2.209 1.789-4 4-4s4 1.791 4 4c0 17.114-30.308 30.021-70.5 30.021z" fill="#4c241d"/><path d="m113.235 195.435c-40.191 0-70.5-12.906-70.5-30.021 0-2.209 1.789-4 4-4s4 1.791 4 4c0 10.416 25.668 22.021 62.5 22.021s62.5-11.605 62.5-22.021c0-2.209 1.789-4 4-4s4 1.791 4 4c0 17.114-30.308 30.021-70.5 30.021z" fill="#4c241d"/><path d="m113.235 179.435c-1.91 0-3.785-.051-5.652-.111-1.207-.039-2.336-.623-3.062-1.588-.73-.965-.984-2.207-.688-3.381l5.141-20.562c.449-1.793 1.938-2.953 3.914-3.029l1.312.016c4.641 0 9.227-.303 13.254-.875.801-.109 1.621.018 2.352.383l29.703 14.852c1.434.719 2.305 2.225 2.203 3.826-.098 1.602-1.148 2.99-2.66 3.523-12.688 4.479-28.961 6.946-45.817 6.946zm-.426-8h.426c11.953 0 23.543-1.291 33.59-3.695l-19.496-9.746c-3.547.447-7.418.711-11.355.771z" fill="#4c241d"/><path d="m97.349 153.36-35.543 12.544c11.099 5.293 27.435 8.824 45.904 9.421l5.141-20.563c-5.801-.07-11.133-.579-15.502-1.402z" fill="#fff"/><path d="m107.712 179.325c-.043 0-.086 0-.129-.002-18.629-.602-35.5-4.084-47.5-9.807-1.461-.697-2.355-2.207-2.273-3.822.086-1.617 1.137-3.021 2.664-3.561l35.543-12.545c.664-.234 1.383-.289 2.07-.16 4.293.809 9.414 1.27 14.812 1.334 1.227.016 2.375.588 3.121 1.557s1.008 2.227.711 3.414l-5.141 20.562c-.445 1.786-2.046 3.03-3.878 3.03zm-34.32-13.267c8.961 2.74 19.781 4.535 31.23 5.133l3.148-12.6c-3.586-.203-7-.578-10.086-1.107z" fill="#4c241d"/><path d="m179.556 154.636c-.062 0-.125-.002-.188-.006l-37.445-1.971c-1.387-.072-2.633-.857-3.301-2.076-.391-.721-.547-1.531-.469-2.322-1.129-.658-3.75-1.729-8.723-2.588-1.793-.309-3.148-1.787-3.305-3.598s.926-3.5 2.641-4.111l30.082-10.742c.902-.322 1.902-.309 2.797.041 14.246 5.561 22.09 13.426 22.09 22.15 0 .488-.062.973-.145 1.455-.234 2.037-1.999 3.768-4.034 3.768zm-40.77-5.914h.039zm7.012-3.869 29.172 1.535c-1.852-3.947-7.105-7.895-14.863-11.121l-17.594 6.283c1.558.969 2.652 2.066 3.285 3.303z" fill="#4c241d"/><path d="m179.578 150.637-37.445-1.971c-1.281 2.236-6.632 4.135-14.117 5.198l29.704 14.852c12.76-4.506 21.004-10.907 21.858-18.079z" fill="#fff"/><path d="m157.72 172.716c-.613 0-1.227-.143-1.789-.422l-29.703-14.852c-1.566-.783-2.441-2.492-2.16-4.221.281-1.727 1.652-3.07 3.387-3.318 7.809-1.109 10.801-2.797 11.293-3.354.754-1.311 2.141-1.951 3.598-1.879l37.445 1.971c1.105.059 2.137.572 2.848 1.418.715.848 1.043 1.951.914 3.051-1.023 8.568-9.723 16.16-24.5 21.377-.435.153-.884.229-1.333.229zm-18.176-17.561 18.422 9.211c7.582-2.869 13.109-6.408 15.816-10.029l-30.004-1.58c-1.078.892-2.492 1.693-4.234 2.398z" fill="#4c241d"/><path d="m105.2 144.868c-.789 0-1.559-.232-2.219-.672l-21.98-14.654c-1.348-.898-2.02-2.52-1.703-4.107.312-1.588 1.555-2.83 3.145-3.145 9.695-1.924 20.055-2.898 30.793-2.898 2.984 0 5.898.1 8.781.246 1.227.061 2.355.684 3.066 1.688.707 1.004.914 2.279.562 3.455l-5.066 16.891c-.516 1.723-1.973 2.957-3.914 2.852-3.68-.076-7.512.021-11.125.332-.113.008-.227.012-.34.012zm-11.269-16.32 12.336 8.225c2.461-.178 4.98-.271 7.512-.281l2.719-9.061c-7.579-.17-15.306.222-22.567 1.117z" fill="#4c241d"/><path d="m61.806 169.905c-.59 0-1.18-.131-1.723-.389-14.336-6.84-17.348-14.707-17.348-20.104 0-4.055 1.738-7.973 5.172-11.646.852-.92 2.09-1.381 3.34-1.248l38.012 4c1.758.186 3.188 1.502 3.512 3.24.273 1.445-.27 2.895-1.367 3.809 1.332.566 3.465 1.256 6.688 1.861 1.777.336 3.109 1.822 3.246 3.627.137 1.803-.953 3.475-2.656 4.076l-35.543 12.545c-.435.153-.884.229-1.333.229zm-9.278-25.207c-1.191 1.625-1.793 3.205-1.793 4.715 0 4.045 4.105 8.428 11.332 12.158l23.281-8.219c-2.227-1.535-3.352-3.381-3.406-5.559z" fill="#4c241d"/><path d="m130.112 141.732 30.081-10.743c-10.118-3.948-23.485-6.605-38.379-7.358l-5.068 16.892c4.929.112 9.493.54 13.366 1.209z" fill="#fff"/><path d="m130.11 145.732c-.227 0-.453-.02-.68-.059-3.766-.648-8.184-1.047-12.773-1.152-1.25-.027-2.414-.637-3.145-1.646-.734-1.01-.957-2.305-.598-3.5l5.066-16.891c.531-1.764 2.086-2.947 4.035-2.846 15.098.762 28.801 3.398 39.629 7.625 1.555.607 2.57 2.115 2.547 3.785-.023 1.668-1.082 3.146-2.656 3.709l-30.082 10.742c-.433.154-.886.233-1.343.233zm-8.058-8.969c2.699.191 5.293.479 7.688.854l17.824-6.365c-6.93-1.689-14.703-2.865-22.828-3.436z" fill="#4c241d"/><path d="m105.201 140.867-21.98-14.653c-14.938 2.966-26.589 8.065-32.394 14.282l38.014 4.002c3.299-1.701 9.175-3.02 16.36-3.631z" fill="#fff"/><path d="m88.841 148.497c-.141 0-.277-.008-.418-.021l-38.012-4c-1.508-.16-2.797-1.158-3.328-2.578s-.215-3.02.82-4.129c6.367-6.824 18.633-12.32 34.539-15.479 1.043-.209 2.117.008 2.996.596l21.98 14.654c1.414.943 2.078 2.678 1.656 4.324-.426 1.646-1.844 2.846-3.535 2.99-6.488.549-12.047 1.746-14.867 3.199-.57.294-1.195.444-1.831.444zm-27.348-10.9 26.656 2.805c1.707-.744 3.805-1.4 6.211-1.953l-11.969-7.98c-8.308 1.766-15.48 4.231-20.898 7.128z" fill="#4c241d"/><ellipse cx="114.201" cy="147.635" fill="#fff" rx="28.259" ry="7.144"/><path d="m114.2 158.778c-5.387 0-32.258-.537-32.258-11.143 0-10.607 26.871-11.145 32.258-11.145s32.262.537 32.262 11.145c0 10.606-26.875 11.143-32.262 11.143zm-22.703-11.142c3.488 1.43 11.336 3.143 22.703 3.143 11.371 0 19.219-1.713 22.707-3.143-3.488-1.43-11.336-3.145-22.707-3.145s-19.215 1.715-22.703 3.145zm47.289 1.084h.039z" fill="#4c241d"/><path d="m66.735 167.999v16c10.539 4.038 24.48 6.718 40 7.307v-16c-15.519-.589-29.461-3.27-40-7.307z" fill="#fff"/><path d="m106.735 195.306c-.051 0-.102 0-.152-.002-15.406-.586-30.066-3.273-41.277-7.57-1.547-.592-2.57-2.078-2.57-3.734v-16c0-1.316.648-2.549 1.734-3.295 1.086-.75 2.477-.908 3.695-.439 10.418 3.988 24.168 6.49 38.723 7.043 2.148.082 3.848 1.848 3.848 3.998v16c0 1.088-.441 2.127-1.227 2.881-.746.717-1.742 1.118-2.774 1.118zm-36-14.112c9.012 3.09 20.152 5.143 32 5.902v-7.984c-11.629-.711-22.695-2.619-32-5.506z" fill="#4c241d"/><path d="m155.367 169.727v16c12.758-3.908 21.709-9.536 24.541-15.968v-14.535h-.739c-3.475 5.821-12.021 10.894-23.802 14.503z" fill="#fff"/><path d="m155.368 189.728c-.848 0-1.68-.27-2.379-.783-1.02-.756-1.621-1.949-1.621-3.217v-16c0-1.758 1.148-3.311 2.828-3.824 10.84-3.32 18.691-7.961 21.539-12.73.723-1.209 2.027-1.949 3.434-1.949h.738c2.211 0 4 1.791 4 4v14.535c0 .555-.117 1.104-.34 1.611-4.164 9.461-16.996 15.109-27.027 18.182-.383.116-.777.175-1.172.175zm4-17.09v7.5c8.449-3.207 14.316-7.193 16.539-11.301v-4.43c-4.879 3.668-11.012 6.348-16.539 8.231z" fill="#4c241d"/><path d="m66.735 183.999v16c10.539 4.038 24.48 6.718 40 7.307v-16c-15.519-.589-29.461-3.27-40-7.307z" fill="#fff"/><path d="m106.735 211.306c-.051 0-.102 0-.152-.002-15.406-.586-30.066-3.273-41.277-7.57-1.547-.592-2.57-2.078-2.57-3.734v-16c0-1.316.648-2.549 1.734-3.295 1.086-.752 2.477-.908 3.695-.439 10.418 3.988 24.168 6.49 38.723 7.043 2.148.082 3.848 1.848 3.848 3.998v16c0 1.088-.441 2.127-1.227 2.881-.746.717-1.742 1.118-2.774 1.118zm-36-14.112c9.012 3.09 20.152 5.143 32 5.902v-7.984c-11.629-.711-22.695-2.619-32-5.506z" fill="#4c241d"/><path d="m155.367 185.727v16c12.758-3.908 21.709-9.536 24.541-15.968v-14.535h-.739c-3.475 5.821-12.021 10.894-23.802 14.503z" fill="#fff"/><path d="m155.368 205.728c-.848 0-1.68-.27-2.379-.783-1.02-.756-1.621-1.949-1.621-3.217v-16c0-1.758 1.148-3.311 2.828-3.824 10.84-3.32 18.691-7.961 21.539-12.73.723-1.209 2.027-1.949 3.434-1.949h.738c2.211 0 4 1.791 4 4v14.535c0 .555-.117 1.104-.34 1.611-4.164 9.461-16.996 15.109-27.027 18.182-.383.116-.777.175-1.172.175zm4-17.09v7.5c8.449-3.207 14.316-7.193 16.539-11.301v-4.43c-4.879 3.668-11.012 6.348-16.539 8.231z" fill="#4c241d"/><path d="m66.735 199.999v16c10.539 4.038 24.48 6.718 40 7.307v-16c-15.519-.589-29.461-3.27-40-7.307z" fill="#fff"/><path d="m106.735 227.306c-.051 0-.102 0-.152-.002-15.406-.586-30.066-3.273-41.277-7.57-1.547-.592-2.57-2.078-2.57-3.734v-16c0-1.316.648-2.549 1.734-3.295 1.086-.752 2.477-.908 3.695-.439 10.418 3.988 24.168 6.49 38.723 7.043 2.148.082 3.848 1.848 3.848 3.998v16c0 1.088-.441 2.127-1.227 2.881-.746.717-1.742 1.118-2.774 1.118zm-36-14.112c9.012 3.09 20.152 5.143 32 5.902v-7.984c-11.629-.711-22.695-2.619-32-5.506z" fill="#4c241d"/><path d="m155.367 201.727v16c12.758-3.908 21.709-9.536 24.541-15.968v-14.535h-.739c-3.475 5.821-12.021 10.894-23.802 14.503z" fill="#fff"/><g fill="#4c241d"><path d="m155.368 221.728c-.848 0-1.68-.27-2.379-.783-1.02-.756-1.621-1.949-1.621-3.217v-16c0-1.758 1.148-3.311 2.828-3.824 10.84-3.32 18.691-7.961 21.539-12.73.723-1.209 2.027-1.949 3.434-1.949h.738c2.211 0 4 1.791 4 4v14.535c0 .555-.117 1.104-.34 1.611-4.164 9.461-16.996 15.109-27.027 18.182-.383.116-.777.175-1.172.175zm4-17.09v7.5c8.449-3.207 14.316-7.193 16.539-11.301v-4.43c-4.879 3.668-11.012 6.348-16.539 8.231z"/><path d="m44.735 67.224c-7.719 0-14-6.281-14-14s6.281-14 14-14 14 6.281 14 14-6.281 14-14 14zm0-20c-3.309 0-6 2.691-6 6s2.691 6 6 6 6-2.691 6-6-2.691-6-6-6z"/><path d="m228.735 143.224c-7.719 0-14-6.281-14-14s6.281-14 14-14 14 6.281 14 14-6.281 14-14 14zm0-20c-3.309 0-6 2.691-6 6s2.691 6 6 6 6-2.691 6-6-2.691-6-6-6z"/><path d="m232.083 66.571c-1.023 0-2.047-.391-2.828-1.172l-14.695-14.695c-1.562-1.562-1.562-4.094 0-5.656s4.094-1.562 5.656 0l14.695 14.695c1.562 1.562 1.562 4.094 0 5.656-.781.782-1.805 1.172-2.828 1.172z"/><path d="m217.388 66.571c-1.023 0-2.047-.391-2.828-1.172-1.562-1.562-1.562-4.094 0-5.656l14.695-14.695c1.562-1.562 4.094-1.562 5.656 0s1.562 4.094 0 5.656l-14.695 14.695c-.782.782-1.805 1.172-2.828 1.172z"/><path d="m116.083 94.571c-1.023 0-2.047-.391-2.828-1.172l-14.696-14.695c-1.562-1.562-1.562-4.094 0-5.656s4.094-1.562 5.656 0l14.695 14.695c1.562 1.562 1.562 4.094 0 5.656-.78.782-1.804 1.172-2.827 1.172z"/><path d="m101.388 94.571c-1.023 0-2.047-.391-2.828-1.172-1.562-1.562-1.562-4.094 0-5.656l14.695-14.695c1.562-1.562 4.094-1.562 5.656 0s1.562 4.094 0 5.656l-14.695 14.695c-.782.782-1.805 1.172-2.828 1.172z"/><circle cx="84.735" cy="37.224" r="4.529"/><circle cx="264.735" cy="89.224" r="4.529"/><circle cx="176.735" cy="77.224" r="4.529"/></g><path d="m126.735 188.359c0-13.79 30.445-24.969 68-24.969s68 11.179 68 24.969v49.896c0 13.79-30.445 24.969-68 24.969s-68-11.179-68-24.969z" fill="#f53e28"/><path d="m194.735 267.224c-34.902 0-72-10.152-72-28.969v-49.896c0-18.816 37.098-28.969 72-28.969s72 10.152 72 28.969v49.896c0 18.816-37.097 28.969-72 28.969zm0-99.834c-36.629 0-64 11.07-64 20.969v49.896c0 9.898 27.371 20.969 64 20.969s64-11.07 64-20.969v-49.896c0-9.899-27.371-20.969-64-20.969z" fill="#4c241d"/><path d="m262.735 188.359c0 13.79-30.445 24.969-68 24.969s-68-11.179-68-24.969" fill="#f53e28"/><path d="m194.735 217.327c-34.902 0-72-10.152-72-28.969 0-2.209 1.789-4 4-4s4 1.791 4 4c0 9.898 27.371 20.969 64 20.969s64-11.07 64-20.969c0-2.209 1.789-4 4-4s4 1.791 4 4c0 18.817-37.097 28.969-72 28.969z" fill="#4c241d"/><path d="m194.735 251.435c-34.902 0-72-10.521-72-30.021 0-2.209 1.789-4 4-4s4 1.791 4 4c0 10.416 26.285 22.021 64 22.021s64-11.605 64-22.021c0-2.209 1.789-4 4-4s4 1.791 4 4c0 19.499-37.097 30.021-72 30.021z" fill="#4c241d"/><path d="m194.735 235.435c-34.902 0-72-10.521-72-30.021 0-2.209 1.789-4 4-4s4 1.791 4 4c0 10.416 26.285 22.021 64 22.021s64-11.605 64-22.021c0-2.209 1.789-4 4-4s4 1.791 4 4c0 19.499-37.097 30.021-72 30.021z" fill="#4c241d"/><path d="m194.735 219.435c-1.949 0-3.863-.051-5.777-.111-1.215-.037-2.344-.625-3.074-1.594-.727-.971-.977-2.219-.676-3.395l5.258-20.562c.457-1.783 1.895-3.023 3.91-3.01l1.348.016c4.75 0 9.445-.303 13.574-.877.789-.109 1.59.021 2.309.369l30.375 14.852c1.453.711 2.332 2.225 2.234 3.838s-1.16 3.01-2.688 3.537c-12.957 4.472-29.574 6.937-46.793 6.937zm-.527-8.002c12.512.213 24.48-1.254 34.906-3.695l-19.941-9.75c-3.66.455-7.66.721-11.727.779z" fill="#4c241d"/><path d="m178.49 193.36-36.344 12.544c11.349 5.293 28.054 8.824 46.939 9.421l5.257-20.563c-5.932-.07-11.385-.579-15.852-1.402z" fill="#fff"/><path d="m189.083 219.325c-.043 0-.082 0-.125-.002-19.027-.6-36.25-4.078-48.504-9.793-1.477-.689-2.387-2.205-2.305-3.834.086-1.627 1.148-3.041 2.691-3.572l36.344-12.545c.656-.225 1.355-.281 2.027-.152 4.398.809 9.645 1.271 15.176 1.336 1.227.016 2.379.592 3.129 1.566.746.973 1.004 2.236.699 3.424l-5.258 20.562c-.452 1.776-2.05 3.01-3.874 3.01zm-35.121-13.267c9.199 2.748 20.305 4.545 32.047 5.139l3.223-12.602c-3.707-.203-7.234-.58-10.414-1.115z" fill="#4c241d"/><path d="m262.556 194.636c-.062 0-.125-.002-.188-.006l-38.293-1.971c-1.398-.072-2.656-.869-3.32-2.104-.379-.707-.527-1.498-.453-2.271-1.168-.666-3.863-1.746-8.977-2.609-1.797-.303-3.164-1.787-3.316-3.605-.156-1.82.941-3.512 2.664-4.113l30.758-10.742c.902-.312 1.871-.297 2.746.039 14.547 5.551 22.559 13.422 22.559 22.16 0 .492-.066.98-.152 1.465-.232 2.034-1.997 3.757-4.028 3.757zm-41.602-5.883h.043zm6.988-3.904 30.016 1.545c-1.895-3.941-7.305-7.902-15.289-11.139l-18.051 6.303c1.578.965 2.684 2.058 3.324 3.291z" fill="#4c241d"/><path d="m262.574 190.637-38.29-1.971c-1.31 2.236-6.781 4.135-14.436 5.198l30.374 14.852c13.049-4.506 21.478-10.907 22.352-18.079z" fill="#fff"/><path d="m240.224 212.716c-.602 0-1.203-.137-1.758-.406l-30.375-14.852c-1.578-.773-2.469-2.486-2.191-4.225.277-1.736 1.656-3.088 3.398-3.33 8.035-1.119 11.113-2.822 11.617-3.385.758-1.287 2.031-1.932 3.574-1.848l38.293 1.971c1.105.057 2.141.57 2.855 1.42s1.043 1.957.906 3.059c-1.043 8.574-9.93 16.166-25.016 21.377-.421.147-.862.219-1.303.219zm-18.598-17.545 18.84 9.211c7.789-2.873 13.469-6.418 16.254-10.043l-30.742-1.582c-.907.752-2.266 1.594-4.352 2.414z" fill="#4c241d"/><path d="m186.52 184.868c-.773 0-1.531-.225-2.184-.648l-22.477-14.654c-1.367-.891-2.055-2.52-1.742-4.119s1.562-2.848 3.164-3.158c9.898-1.922 20.48-2.896 31.453-2.896 3.047 0 6.027.1 8.969.246 1.23.061 2.367.688 3.074 1.697.711 1.01.914 2.289.551 3.469l-5.18 16.891c-.523 1.711-2.07 2.906-3.906 2.828-3.781-.08-7.703.025-11.391.332-.108.008-.221.012-.331.012zm-11.566-16.316 12.613 8.225c2.555-.182 5.172-.277 7.809-.285l2.781-9.059c-7.824-.18-15.746.216-23.203 1.119z" fill="#4c241d"/><path d="m142.145 209.905c-.578 0-1.156-.125-1.691-.375-14.645-6.832-17.719-14.711-17.719-20.117 0-4.074 1.781-8.004 5.289-11.68.855-.893 2.082-1.346 3.305-1.215l38.871 4c1.766.182 3.199 1.506 3.523 3.252.266 1.439-.277 2.881-1.363 3.791 1.371.57 3.562 1.258 6.855 1.865 1.785.33 3.125 1.822 3.262 3.633.137 1.812-.965 3.488-2.684 4.082l-36.344 12.545c-.421.147-.862.219-1.304.219zm-9.558-25.214c-1.23 1.631-1.852 3.215-1.852 4.723 0 4.039 4.23 8.432 11.668 12.172l23.871-8.24c-2.254-1.531-3.391-3.373-3.445-5.543z" fill="#4c241d"/><path d="m211.992 181.732 30.759-10.743c-10.346-3.948-24.014-6.605-39.245-7.358l-5.182 16.892c5.041.112 9.708.54 13.668 1.209z" fill="#fff"/><path d="m211.993 185.732c-.223 0-.445-.018-.664-.057-3.863-.65-8.391-1.049-13.094-1.152-1.25-.029-2.418-.643-3.152-1.658s-.949-2.316-.582-3.514l5.18-16.891c.531-1.752 2.168-2.883 4.02-2.824 15.426.762 29.422 3.396 40.477 7.617 1.57.598 2.598 2.113 2.574 3.793s-1.094 3.166-2.68 3.719l-30.758 10.742c-.426.15-.872.225-1.321.225zm-8.328-8.973c2.797.189 5.488.48 7.965.863l18.234-6.369c-7.117-1.697-15.105-2.875-23.457-3.443z" fill="#4c241d"/><path d="m186.519 180.867-22.476-14.653c-15.275 2.966-27.189 8.065-33.124 14.282l38.871 4.002c3.373-1.701 9.382-3.02 16.729-3.631z" fill="#fff"/><path d="m169.79 188.497c-.137 0-.273-.008-.41-.021l-38.871-4c-1.52-.156-2.816-1.162-3.344-2.596-.527-1.432-.195-3.039.859-4.145 6.5-6.811 19.02-12.297 35.258-15.447 1.02-.205 2.074.008 2.945.574l22.477 14.654c1.434.934 2.113 2.674 1.695 4.332-.418 1.656-1.844 2.865-3.547 3.006-6.656.553-12.359 1.754-15.266 3.215-.558.284-1.175.428-1.796.428zm-28.004-10.902 27.324 2.811c1.746-.748 3.895-1.408 6.367-1.963l-12.25-7.984c-8.519 1.767-15.875 4.233-21.441 7.136z" fill="#4c241d"/><ellipse cx="195.722" cy="187.635" fill="#fff" rx="28.896" ry="7.144"/><path d="m195.724 198.778c-7.719 0-32.898-.803-32.898-11.143 0-10.342 25.18-11.145 32.898-11.145 7.715 0 32.895.803 32.895 11.145-.001 10.341-25.181 11.143-32.895 11.143zm-23.25-11.142c3.609 1.436 11.641 3.143 23.25 3.143s19.637-1.707 23.246-3.143c-3.609-1.438-11.637-3.145-23.246-3.145s-19.641 1.707-23.25 3.145zm48.48 1.117h.039z" fill="#4c241d"/><path d="m147.186 207.999v16c10.777 4.038 25.032 6.718 40.902 7.307v-16c-15.869-.589-30.125-3.27-40.902-7.307z" fill="#fff"/><path d="m188.087 235.306c-.051 0-.098 0-.148-.002-15.734-.586-30.707-3.27-42.156-7.559-1.562-.586-2.598-2.078-2.598-3.746v-16c0-1.312.645-2.539 1.723-3.287 1.07-.744 2.457-.916 3.68-.459 10.668 3.996 24.75 6.502 39.648 7.055 2.148.08 3.852 1.848 3.852 3.998v16c0 1.086-.441 2.127-1.223 2.881-.751.718-1.747 1.119-2.778 1.119zm-36.903-14.131c9.262 3.107 20.719 5.172 32.902 5.928v-7.986c-11.965-.709-23.348-2.633-32.902-5.545z" fill="#4c241d"/><path d="m237.171 209.727v16c12.758-3.908 21.709-9.536 24.541-15.968v-14.535h-.739c-3.475 5.821-12.021 10.894-23.802 14.503z" fill="#fff"/><path d="m237.169 229.728c-.848 0-1.684-.27-2.379-.783-1.02-.756-1.621-1.949-1.621-3.217v-16c0-1.758 1.148-3.311 2.828-3.824 10.844-3.322 18.695-7.963 21.543-12.73.723-1.209 2.027-1.949 3.434-1.949h.738c2.211 0 4 1.791 4 4v14.535c0 .555-.117 1.104-.34 1.611-4.164 9.461-17 15.109-27.031 18.182-.383.116-.782.175-1.172.175zm4-17.09v7.502c8.449-3.207 14.32-7.195 16.543-11.303v-4.43c-4.879 3.666-11.016 6.348-16.543 8.231z" fill="#4c241d"/><path d="m147.186 223.999v16c10.777 4.038 25.032 6.718 40.902 7.307v-16c-15.869-.589-30.125-3.27-40.902-7.307z" fill="#fff"/><path d="m188.087 251.306c-.051 0-.098 0-.148-.002-15.734-.586-30.707-3.27-42.156-7.559-1.562-.586-2.598-2.078-2.598-3.746v-16c0-1.312.645-2.539 1.723-3.287 1.07-.748 2.457-.918 3.68-.459 10.668 3.996 24.75 6.502 39.648 7.055 2.148.08 3.852 1.848 3.852 3.998v16c0 1.086-.441 2.127-1.223 2.881-.751.718-1.747 1.119-2.778 1.119zm-36.903-14.131c9.262 3.107 20.719 5.172 32.902 5.928v-7.986c-11.965-.709-23.348-2.633-32.902-5.545z" fill="#4c241d"/><path d="m237.171 225.727v16c12.758-3.908 21.709-9.536 24.541-15.968v-14.535h-.739c-3.475 5.821-12.021 10.894-23.802 14.503z" fill="#fff"/><path d="m237.169 245.728c-.848 0-1.684-.27-2.379-.783-1.02-.756-1.621-1.949-1.621-3.217v-16c0-1.758 1.148-3.311 2.828-3.824 10.844-3.322 18.695-7.963 21.543-12.73.723-1.209 2.027-1.949 3.434-1.949h.738c2.211 0 4 1.791 4 4v14.535c0 .555-.117 1.104-.34 1.611-4.164 9.461-17 15.109-27.031 18.182-.383.116-.782.175-1.172.175zm4-17.09v7.502c8.449-3.207 14.32-7.195 16.543-11.303v-4.43c-4.879 3.666-11.016 6.348-16.543 8.231z" fill="#4c241d"/><path d="m147.186 239.999v16c10.777 4.038 25.032 6.718 40.902 7.307v-16c-15.869-.589-30.125-3.27-40.902-7.307z" fill="#fff"/><path d="m188.087 267.306c-.051 0-.098 0-.148-.002-15.734-.586-30.707-3.27-42.156-7.559-1.562-.586-2.598-2.078-2.598-3.746v-16c0-1.312.645-2.539 1.723-3.287 1.07-.75 2.457-.92 3.68-.459 10.668 3.996 24.75 6.502 39.648 7.055 2.148.08 3.852 1.848 3.852 3.998v16c0 1.086-.441 2.127-1.223 2.881-.751.718-1.747 1.119-2.778 1.119zm-36.903-14.131c9.262 3.107 20.719 5.172 32.902 5.928v-7.986c-11.965-.709-23.348-2.633-32.902-5.545z" fill="#4c241d"/><path d="m237.171 241.727v16c12.758-3.908 21.709-9.536 24.541-15.968v-14.535h-.739c-3.475 5.821-12.021 10.894-23.802 14.503z" fill="#fff"/><path d="m237.169 261.728c-.848 0-1.684-.27-2.379-.783-1.02-.756-1.621-1.949-1.621-3.217v-16c0-1.758 1.148-3.311 2.828-3.824 10.844-3.322 18.695-7.963 21.543-12.73.723-1.209 2.027-1.949 3.434-1.949h.738c2.211 0 4 1.791 4 4v14.535c0 .555-.117 1.104-.34 1.611-4.164 9.461-17 15.109-27.031 18.182-.383.116-.782.175-1.172.175zm4-17.09v7.502c8.449-3.207 14.32-7.195 16.543-11.303v-4.43c-4.879 3.666-11.016 6.348-16.543 8.231z" fill="#4c241d"/></svg>