<svg id="poker_x5F_chip" enable-background="new 0 0 300 300" height="512" viewBox="0 0 300 300" width="512" xmlns="http://www.w3.org/2000/svg"><circle cx="123.393" cy="123.393" fill="#efefd2" r="92"/><circle cx="167.393" cy="167.393" fill="#f53e28" r="97.214"/><path d="m167.393 268.607c-55.809 0-101.215-45.404-101.215-101.215s45.406-101.214 101.215-101.214 101.215 45.404 101.215 101.215-45.407 101.214-101.215 101.214zm0-194.429c-51.398 0-93.215 41.816-93.215 93.215s41.816 93.215 93.215 93.215 93.215-41.816 93.215-93.215-41.817-93.215-93.215-93.215z" fill="#4c241d"/><path d="m167.393 240.369c-40.238 0-72.977-32.736-72.977-72.977s32.738-72.977 72.977-72.977 72.977 32.736 72.977 72.977-32.739 72.977-72.977 72.977zm0-137.953c-35.828 0-64.977 29.148-64.977 64.977s29.148 64.977 64.977 64.977 64.977-29.148 64.977-64.977-29.149-64.977-64.977-64.977z" fill="#4c241d"/><circle cx="167.393" cy="167.393" fill="#fff" r="48.623"/><path d="m167.393 220.016c-29.016 0-52.621-23.607-52.621-52.623s23.605-52.623 52.621-52.623 52.621 23.607 52.621 52.623-23.606 52.623-52.621 52.623zm0-97.246c-24.605 0-44.621 20.018-44.621 44.623s20.016 44.623 44.621 44.623 44.621-20.018 44.621-44.623-20.016-44.623-44.621-44.623z" fill="#4c241d"/><path d="m181.496 99.869 2.511-28.248c-5.402-.931-10.947-1.443-16.614-1.443-5.947 0-11.759.563-17.411 1.586l2.75 28.249c4.729-1.024 9.625-1.597 14.661-1.597 4.834 0 9.549.507 14.103 1.453z" fill="#fff"/><path d="m152.732 104.012c-.84 0-1.668-.266-2.355-.768-.926-.674-1.516-1.709-1.625-2.846l-2.75-28.248c-.203-2.072 1.219-3.951 3.27-4.322 11.789-2.137 23.535-2.193 35.414-.148 2.051.352 3.488 2.221 3.305 4.295l-2.512 28.248c-.102 1.139-.684 2.178-1.602 2.859-.922.68-2.082.932-3.199.703-8.824-1.836-17.98-1.842-27.098.137-.281.06-.566.09-.848.09zm1.594-28.899 1.965 20.17c7.27-1.129 14.488-1.141 21.605-.107l1.793-20.168c-8.531-1.137-16.875-1.096-25.363.105z" fill="#4c241d"/><path d="m152.731 234.773-2.75 28.249c5.652 1.023 11.464 1.586 17.411 1.586 5.667 0 11.212-.513 16.614-1.443l-2.511-28.248c-4.554.947-9.269 1.453-14.103 1.453-5.035-.001-9.932-.573-14.661-1.597z" fill="#fff"/><path d="m167.393 268.607c-5.98 0-12.078-.555-18.121-1.65-2.051-.371-3.473-2.25-3.27-4.322l2.75-28.248c.109-1.137.699-2.172 1.625-2.846.914-.67 2.082-.92 3.203-.678 9.117 1.979 18.273 1.975 27.098.137 1.125-.23 2.281.023 3.199.703.918.682 1.5 1.721 1.602 2.859l2.512 28.248c.184 2.074-1.254 3.943-3.305 4.295-5.79.997-11.61 1.502-17.293 1.502zm-13.067-8.935c8.488 1.203 16.832 1.242 25.363.105l-1.793-20.168c-7.117 1.035-14.332 1.021-21.605-.107z" fill="#4c241d"/><path d="m100.012 152.731-28.249-2.75c-1.023 5.652-1.586 11.464-1.586 17.411 0 5.667.513 11.212 1.443 16.614l28.248-2.511c-.947-4.554-1.453-9.269-1.453-14.103.001-5.035.573-9.932 1.597-14.661z" fill="#fff"/><path d="m71.619 188.006c-1.926 0-3.605-1.387-3.938-3.318-.996-5.771-1.504-11.592-1.504-17.295 0-5.98.555-12.078 1.648-18.123.371-2.045 2.285-3.473 4.324-3.268l28.25 2.75c1.137.109 2.172.701 2.844 1.625.676.922.922 2.088.68 3.205-1 4.6-1.508 9.248-1.508 13.811 0 4.439.461 8.912 1.371 13.291.23 1.117-.027 2.281-.707 3.197s-1.719 1.498-2.855 1.6l-28.246 2.51c-.121.009-.242.015-.359.015zm3.492-33.678c-.621 4.375-.934 8.754-.934 13.064 0 4.055.277 8.178.828 12.297l20.172-1.793c-.508-3.484-.762-7.002-.762-10.504 0-3.676.293-7.393.867-11.102z" fill="#4c241d"/><path d="m264.607 167.393c0-5.947-.563-11.759-1.586-17.411l-28.249 2.75c1.024 4.729 1.597 9.626 1.597 14.661 0 4.835-.507 9.549-1.453 14.103l28.248 2.511c.93-5.402 1.443-10.947 1.443-16.614z" fill="#fff"/><path d="m263.166 188.006c-.117 0-.238-.006-.359-.016l-28.246-2.51c-1.137-.102-2.176-.684-2.855-1.6s-.938-2.08-.707-3.197c.91-4.379 1.371-8.852 1.371-13.291 0-4.562-.508-9.211-1.508-13.811-.242-1.117.004-2.283.68-3.205.672-.924 1.707-1.516 2.844-1.625l28.25-2.75c2.051-.209 3.953 1.223 4.324 3.268 1.094 6.045 1.648 12.143 1.648 18.123 0 5.703-.508 11.523-1.504 17.295-.333 1.932-2.012 3.319-3.938 3.319zm-23.559-10.11 20.172 1.793c.551-4.119.828-8.242.828-12.297 0-4.311-.312-8.689-.934-13.064l-20.172 1.963c.574 3.709.867 7.426.867 11.102.001 3.502-.253 7.019-.761 10.503z" fill="#4c241d"/><path d="m130.442 109.215-17.946-22.048c-9.425 6.462-17.641 14.547-24.273 23.844l21.667 18.32c5.353-8.071 12.375-14.912 20.552-20.116z" fill="#fff"/><path d="m109.889 133.33c-.941 0-1.855-.332-2.582-.945l-21.664-18.318c-1.59-1.344-1.883-3.684-.676-5.377 6.949-9.738 15.449-18.09 25.27-24.822 1.719-1.182 4.055-.84 5.363.773l17.945 22.049c.723.887 1.031 2.037.848 3.164s-.84 2.123-1.801 2.736c-7.801 4.965-14.32 11.34-19.371 18.951-.629.951-1.637 1.588-2.77 1.75-.187.025-.375.039-.562.039zm-16.215-22.947 15.473 13.08c4.359-5.773 9.531-10.832 15.441-15.105l-12.82-15.752c-6.813 5.072-12.875 11.031-18.094 17.777z" fill="#4c241d"/><path d="m224.596 205.946c-5.418 8.023-12.521 14.784-20.743 19.922l17.773 22.213c9.481-6.385 17.759-14.408 24.467-23.647z" fill="#fff"/><path d="m221.631 252.082c-1.18 0-2.34-.518-3.129-1.5l-17.773-22.213c-.711-.893-1.012-2.047-.816-3.172.191-1.125.852-2.115 1.82-2.721 7.891-4.932 14.469-11.246 19.547-18.768.641-.947 1.652-1.574 2.785-1.727 1.133-.148 2.273.189 3.141.932l21.496 18.486c1.578 1.357 1.852 3.699.629 5.383-7.031 9.686-15.602 17.969-25.469 24.617-.684.46-1.462.683-2.231.683zm-11.93-25.305 12.703 15.871c6.848-5.014 12.957-10.924 18.234-17.631l-15.348-13.197c-4.394 5.711-9.616 10.719-15.589 14.957z" fill="#4c241d"/><path d="m106.851 200.451-21.868 18.49c6.261 9.989 14.279 18.759 23.633 25.872l17.88-21.967c-8.055-5.951-14.809-13.558-19.645-22.395z" fill="#fff"/><path d="m108.611 248.812c-.844 0-1.695-.266-2.418-.816-9.781-7.436-18.059-16.496-24.602-26.93-1.055-1.688-.711-3.895.809-5.18l21.867-18.49c.914-.773 2.137-1.104 3.312-.877 1.184.219 2.203.957 2.777 2.012 4.461 8.148 10.863 15.445 18.516 21.098.883.648 1.457 1.631 1.594 2.715.137 1.086-.176 2.18-.867 3.027l-17.883 21.967c-.788.969-1.941 1.474-3.105 1.474zm-18.347-29.097c4.977 7.334 10.926 13.873 17.742 19.51l12.816-15.744c-5.855-4.863-10.949-10.611-14.996-16.924z" fill="#4c241d"/><path d="m221.151 124.229 21.441-18.44c-7.017-8.556-15.464-15.893-24.978-21.645l-17.875 22.341c8.296 4.415 15.568 10.475 21.412 17.744z" fill="#fff"/><g fill="#4c241d"><path d="m221.15 128.229c-.121 0-.242-.006-.367-.018-1.078-.098-2.07-.631-2.75-1.477-5.578-6.936-12.363-12.562-20.172-16.719-1.051-.561-1.797-1.559-2.039-2.723-.238-1.166.051-2.379.793-3.309l17.875-22.34c1.254-1.564 3.469-1.969 5.195-.922 9.902 5.986 18.648 13.568 26 22.529 1.375 1.68 1.16 4.152-.484 5.57l-21.441 18.439c-.731.63-1.656.97-2.61.97zm-15.375-22.885c5.875 3.637 11.172 8.068 15.816 13.23l15.367-13.217c-5.441-6.104-11.625-11.439-18.453-15.924z"/><path d="m237.393 63.393c-7.719 0-14-6.281-14-14s6.281-14 14-14 14 6.281 14 14-6.282 14-14 14zm0-20c-3.309 0-6 2.691-6 6s2.691 6 6 6 6-2.691 6-6-2.692-6-6-6z"/><path d="m45.393 247.393c-7.719 0-14-6.281-14-14s6.281-14 14-14 14 6.281 14 14-6.282 14-14 14zm0-20c-3.309 0-6 2.691-6 6s2.691 6 6 6 6-2.691 6-6-2.692-6-6-6z"/><path d="m56.74 82.74c-1.023 0-2.047-.391-2.828-1.172l-14.695-14.695c-1.562-1.562-1.562-4.094 0-5.656s4.094-1.562 5.656 0l14.695 14.695c1.562 1.562 1.562 4.094 0 5.656-.781.782-1.804 1.172-2.828 1.172z"/><path d="m42.045 82.74c-1.023 0-2.047-.391-2.828-1.172-1.562-1.562-1.562-4.094 0-5.656l14.695-14.695c1.562-1.562 4.094-1.562 5.656 0s1.562 4.094 0 5.656l-14.695 14.695c-.781.782-1.805 1.172-2.828 1.172z"/><circle cx="261.393" cy="85.393" r="4.529"/><circle cx="49.393" cy="181.393" r="4.529"/><circle cx="81.393" cy="45.393" r="4.529"/><path d="m167.393 190.426c-8.258 0-14.973-6.717-14.973-14.973v-1.717c0-2.209 1.789-4 4-4s4 1.791 4 4v1.717c0 3.846 3.129 6.973 6.973 6.973s6.973-3.127 6.973-6.973c0-2.77-1.605-5.34-4.094-6.549l-10.801-5.26c-4.285-2.084-7.051-6.51-7.051-11.273 0-6.623 5.387-12.012 12.012-12.012h5.922c6.625 0 12.012 5.389 12.012 12.012 0 2.209-1.789 4-4 4s-4-1.791-4-4c0-2.213-1.801-4.012-4.012-4.012h-5.922c-2.211 0-4.012 1.799-4.012 4.012 0 1.725 1 3.326 2.551 4.082l10.801 5.258c5.219 2.539 8.594 7.934 8.594 13.742-.001 8.256-6.716 14.973-14.973 14.973z"/><path d="m167.736 197.742c-2.211 0-4-1.791-4-4v-56.699c0-2.209 1.789-4 4-4s4 1.791 4 4v56.699c0 2.209-1.789 4-4 4z"/></g></svg>