<svg id="woman" enable-background="new 0 0 300 300" height="512" viewBox="0 0 300 300" width="512" xmlns="http://www.w3.org/2000/svg"><circle cx="122.735" cy="122" fill="#efefd2" r="92"/><path d="m210.735 198-100-4v-108l100-4z" fill="#ffce56"/><path d="m210.735 202c-.053 0-.105-.002-.16-.004l-100-4c-2.145-.086-3.84-1.85-3.84-3.996v-108c0-2.146 1.695-3.91 3.84-3.996l100-4c1.076-.051 2.148.357 2.932 1.111.785.754 1.229 1.797 1.229 2.885v116c0 1.088-.443 2.131-1.229 2.885-.746.717-1.74 1.115-2.772 1.115zm-96-11.844 92 3.68v-107.672l-92 3.68z" fill="#4c241d"/><path d="m263.157 250.444c0-17.153-7.359-33.323-19.943-44.594-13.105 14.731-20.479 33.746-20.479 53.572v6.578h40.422z" fill="#fff"/><path d="m263.157 270h-40.422c-2.209 0-4-1.791-4-4v-6.578c0-20.686 7.633-40.654 21.49-56.23.707-.795 1.701-1.275 2.762-1.336 1.088-.051 2.105.307 2.895 1.014 13.521 12.111 21.275 29.451 21.275 47.576v15.554c0 2.209-1.791 4-4 4zm-36.422-8h32.422v-11.555c0-14.475-5.654-28.377-15.641-38.75-10.85 13.596-16.781 30.387-16.781 47.727z" fill="#4c241d"/><path d="m78.339 205.941c-12.45 11.264-19.721 27.344-19.721 44.391v15.668h40.117v-6.578c0-19.785-7.342-38.763-20.396-53.481z" fill="#fff"/><path d="m98.735 270h-40.117c-2.209 0-4-1.791-4-4v-15.668c0-18 7.668-35.26 21.037-47.357.791-.713 1.863-1.074 2.902-1.027 1.066.059 2.064.541 2.773 1.34 13.803 15.561 21.404 35.496 21.404 56.135v6.577c.001 2.209-1.79 4-3.999 4zm-36.117-8h32.117v-2.578c0-17.289-5.898-34.039-16.689-47.613-9.85 10.35-15.428 24.168-15.428 38.523z" fill="#4c241d"/><path d="m243.214 205.85c-2.052-1.838-4.229-3.56-6.551-5.12l-5.1-3.426c-10.969-7.369-23.885-11.304-37.1-11.304h-67.349c-13.281 0-26.259 3.975-37.262 11.413l-4.885 3.302c-2.353 1.591-4.554 3.349-6.628 5.225 13.054 14.718 20.396 33.697 20.396 53.481v6.579h124v-6.578c0-19.826 7.373-38.841 20.479-53.572z" fill="#6b4f5b"/><g fill="#4c241d"><path d="m222.735 270h-124c-2.209 0-4-1.791-4-4v-6.578c0-18.682-6.887-36.73-19.389-50.826-1.455-1.641-1.318-4.148.309-5.621 2.297-2.076 4.676-3.953 7.072-5.572l4.885-3.303c11.709-7.916 25.369-12.1 39.502-12.1h67.35c14.061 0 27.66 4.145 39.33 11.984l5.1 3.426c2.359 1.584 4.713 3.422 6.988 5.459 1.643 1.471 1.785 3.992.32 5.639-12.553 14.111-19.467 32.191-19.467 50.914v6.578c0 2.209-1.791 4-4 4zm-120-8h116v-2.578c0-19.32 6.658-38.018 18.83-53.092-1.039-.814-2.086-1.576-3.131-2.277l-5.102-3.428c-10.345-6.951-22.403-10.625-34.868-10.625h-67.35c-12.531 0-24.641 3.709-35.021 10.729l-4.885 3.301c-1.084.732-2.166 1.527-3.238 2.379 12.129 15.061 18.766 33.73 18.766 53.014v2.577z"/><path d="m56.735 58c-7.719 0-14-6.281-14-14s6.281-14 14-14 14 6.281 14 14-6.281 14-14 14zm0-20c-3.309 0-6 2.691-6 6s2.691 6 6 6 6-2.691 6-6-2.691-6-6-6z"/><path d="m248.735 166c-7.719 0-14-6.281-14-14s6.281-14 14-14 14 6.281 14 14-6.281 14-14 14zm0-20c-3.309 0-6 2.691-6 6s2.691 6 6 6 6-2.691 6-6-2.691-6-6-6z"/><circle cx="68.735" cy="108" r="4.529"/><circle cx="264.735" cy="100" r="4.529"/><path d="m243.388 63.348c-1.023 0-2.047-.391-2.828-1.172-1.562-1.562-1.562-4.094 0-5.656l14.695-14.695c1.562-1.562 4.094-1.562 5.656 0s1.562 4.094 0 5.656l-14.695 14.695c-.782.781-1.805 1.172-2.828 1.172z"/><path d="m258.083 63.348c-1.023 0-2.047-.391-2.828-1.172l-14.696-14.696c-1.562-1.562-1.562-4.094 0-5.656s4.094-1.562 5.656 0l14.695 14.695c1.562 1.562 1.562 4.094 0 5.656-.78.782-1.804 1.173-2.827 1.173z"/><path d="m51.388 191.348c-1.023 0-2.047-.391-2.828-1.172-1.562-1.562-1.562-4.094 0-5.656l14.695-14.695c1.562-1.562 4.094-1.562 5.656 0s1.562 4.094 0 5.656l-14.695 14.695c-.782.781-1.805 1.172-2.828 1.172z"/><path d="m66.083 191.348c-1.023 0-2.047-.391-2.828-1.172l-14.696-14.696c-1.562-1.562-1.562-4.094 0-5.656s4.094-1.562 5.656 0l14.695 14.695c1.562 1.562 1.562 4.094 0 5.656-.78.782-1.804 1.173-2.827 1.173z"/></g><path d="m138.735 146h43.683v56h-43.683z" fill="#e7d1c4"/><path d="m182.419 206h-43.684c-2.209 0-4-1.791-4-4v-56c0-2.209 1.791-4 4-4h43.684c2.209 0 4 1.791 4 4v56c0 2.209-1.791 4-4 4zm-39.684-8h35.684v-48h-35.684z" fill="#4c241d"/><path d="m206.863 186h-20.128l-2.667 12h-46.667l-2.667-12h-20.128c-2.568 0-3.971 2.995-2.326 4.968l22.809 23.242c.842 10.216 3.261 19.918 7.094 28.033l6.872 14.55c5.701 12.071 16.449 12.309 22.332.495l7.339-14.737c4.031-8.095 6.621-17.892 7.577-28.265l22.885-23.319c1.646-1.972.243-4.967-2.325-4.967z" fill="#fff"/><path d="m160.347 270c-.045 0-.088-.002-.133-.002-5.969-.062-11.354-4.252-14.775-11.496l-6.871-14.549c-3.814-8.078-6.34-17.717-7.332-27.961l-21.809-22.223c-1.982-2.357-2.354-5.225-1.184-7.721 1.17-2.498 3.607-4.049 6.365-4.049h20.127c1.875 0 3.498 1.303 3.904 3.133l1.971 8.868h40.25l1.971-8.867c.406-1.83 2.029-3.133 3.904-3.133h20.127c2.758 0 5.195 1.551 6.365 4.049 1.17 2.496.799 5.363-.967 7.48l-22.115 22.553c-1.111 10.426-3.811 20.166-7.838 28.254l-7.34 14.736c-3.46 6.951-8.784 10.926-14.62 10.928zm-43.428-80 21.027 21.41c.654.666 1.055 1.541 1.131 2.473.811 9.838 3.137 19.055 6.725 26.654l6.871 14.547c2.031 4.301 4.881 6.887 7.623 6.914.016.002.033.002.049.002 2.688 0 5.406-2.363 7.463-6.494l7.34-14.736c3.773-7.578 6.254-16.861 7.174-26.85.084-.916.482-1.777 1.127-2.436l21.085-21.484h-14.59l-1.971 8.867c-.406 1.83-2.029 3.133-3.904 3.133h-46.668c-1.875 0-3.498-1.303-3.904-3.133l-1.971-8.867zm89.943 0h.039z" fill="#4c241d"/><path d="m158.503 210c-4.29 0-7.768-3.478-7.768-7.768v-4.465c0-4.29 3.478-7.768 7.768-7.768 4.29 0 7.768 3.478 7.768 7.768v4.465c-.001 4.29-3.478 7.768-7.768 7.768z" fill="#c1dbdc"/><path d="m158.503 214c-6.488 0-11.768-5.279-11.768-11.768v-4.465c0-6.488 5.279-11.768 11.768-11.768s11.768 5.279 11.768 11.768v4.465c-.001 6.489-5.28 11.768-11.768 11.768zm0-20c-2.078 0-3.768 1.689-3.768 3.768v4.465c0 2.078 1.689 3.768 3.768 3.768s3.768-1.689 3.768-3.768v-4.465c-.001-2.079-1.69-3.768-3.768-3.768z" fill="#4c241d"/><path d="m166.27 190.667v18.666l20.465 4.667v-28z" fill="#c1dbdc"/><path d="m186.735 218c-.297 0-.594-.033-.889-.1l-20.465-4.666c-1.82-.416-3.111-2.033-3.111-3.9v-18.668c0-1.867 1.291-3.484 3.111-3.9l20.465-4.666c1.186-.273 2.432.014 3.383.773s1.506 1.91 1.506 3.127v28c0 1.217-.555 2.367-1.506 3.127-.714.57-1.595.873-2.494.873zm-16.465-11.857 12.465 2.842v-17.969l-12.465 2.842z" fill="#4c241d"/><path d="m127.21 126h-6.272c-5.454 0-9.876-4.422-9.876-9.876 0-5.454 4.422-9.876 9.876-9.876h6.272z" fill="#e7d1c4"/><path d="m127.21 130h-6.271c-7.652 0-13.877-6.225-13.877-13.877 0-7.65 6.225-13.875 13.877-13.875h6.271c2.209 0 4 1.791 4 4v19.752c0 2.209-1.791 4-4 4zm-6.272-19.752c-3.24 0-5.877 2.635-5.877 5.875s2.637 5.877 5.877 5.877h2.271v-11.752z" fill="#4c241d"/><path d="m194.735 106.248h6.124c5.454 0 9.876 4.422 9.876 9.876 0 5.454-4.422 9.876-9.876 9.876h-6.124z" fill="#e7d1c4"/><path d="m200.858 130h-6.123c-2.209 0-4-1.791-4-4v-19.752c0-2.209 1.791-4 4-4h6.123c7.652 0 13.877 6.225 13.877 13.875 0 7.652-6.224 13.877-13.877 13.877zm-2.123-8h2.123c3.24 0 5.877-2.637 5.877-5.877s-2.637-5.875-5.877-5.875h-2.123z" fill="#4c241d"/><path d="m151.2 190.667v18.666l-20.465 4.667v-28z" fill="#c1dbdc"/><path d="m130.735 218c-.898 0-1.779-.303-2.494-.873-.951-.76-1.506-1.91-1.506-3.127v-28c0-1.217.555-2.367 1.506-3.127.953-.756 2.201-1.041 3.383-.773l20.465 4.666c1.82.416 3.111 2.033 3.111 3.9v18.668c0 1.867-1.291 3.484-3.111 3.9l-20.465 4.666c-.295.067-.592.1-.889.1zm4-26.984v17.969l12.465-2.842v-12.285z" fill="#4c241d"/><path d="m179.753 157.826-2.566 1.896c-5.041 3.725-11.144 5.735-17.412 5.735-6.821 0-13.429-2.38-18.684-6.73l-1.08-.894c-10.641-8.808-16.801-21.903-16.801-35.717v-53.546h75.356v51.965c0 14.711-6.981 28.549-18.813 37.291z" fill="#e7d1c4"/><path d="m159.774 169.457c-7.734 0-15.275-2.717-21.234-7.648l-1.08-.896c-11.598-9.598-18.25-23.74-18.25-38.797v-53.546c0-2.209 1.791-4 4-4h75.355c2.209 0 4 1.791 4 4v51.965c0 15.91-7.639 31.053-20.436 40.508l-2.566 1.896c-5.687 4.204-12.716 6.518-19.789 6.518zm-32.564-96.887v49.545c0 12.666 5.596 24.561 15.352 32.635l1.08.896c4.527 3.746 10.256 5.811 16.133 5.811 5.373 0 10.713-1.758 15.035-4.951l2.566-1.896c10.764-7.953 17.189-20.691 17.189-34.074v-47.966z" fill="#4c241d"/><path d="m169.009 39.987c-29.86-3.247-58.195 18.161-65.883 50.579-.098.413-.194.829-.288 1.248 0 0 32.179 12.777 78.457-11.334 6.659 8.122 18.185 13.294 29.44 13.519.077.002.079-5.079.054-11.934-.075-20.715-15.311-38.264-35.814-41.219z" fill="#ffce56"/><path d="m125.954 99.242c-14.92.002-23.885-3.43-24.592-3.711-1.828-.725-2.857-2.672-2.426-4.592l.297-1.291c8.072-34.057 38.238-57.131 70.207-53.639l.141.018 5.967.861c22.287 3.211 39.16 22.627 39.242 45.162.047 13.533.047 13.533-1.256 14.807-.77.752-1.807 1.125-2.879 1.143-11.475-.23-22.773-4.975-30.273-12.566-21.971 10.908-40.717 13.808-54.428 13.808zm-18.318-10.162c9.109 2.281 36.191 6.412 71.812-12.146 1.676-.877 3.74-.453 4.941 1.012 5.072 6.188 13.57 10.57 22.414 11.746.004-2.715-.008-6.08-.014-7.611-.068-18.6-13.99-34.625-32.385-37.273l-5.896-.852c-27.181-2.917-52.925 16.345-60.872 45.124z" fill="#4c241d"/><path d="m158.735 266c-2.209 0-4-1.791-4-4v-52c0-2.209 1.791-4 4-4s4 1.791 4 4v52c0 2.209-1.791 4-4 4z" fill="#4c241d"/><circle cx="144.735" cy="116" fill="#4c241d" r="5.261"/><circle cx="176.735" cy="116" fill="#4c241d" r="5.261"/></svg>