<svg height="512pt" viewBox="-80 0 512 512" width="512pt" xmlns="http://www.w3.org/2000/svg"><path d="m119.734375 392.265625v-40.078125s-40.078125-1-40.078125-40.078125c0-39.074219 40.078125-40.078125 40.078125-40.078125v-152.296875h-80.15625v32.0625h-32.0625v320.625h32.0625v32.0625h160.3125v-32.0625h32.0625v-80.15625zm0 0" fill="#72e9cd"/><path d="m231.953125 264.015625-48.09375-64.125 48.09375-64.125 48.09375 64.125zm0 0" fill="#72e9cd"/><path d="m95.6875 440.859375h16.03125v15.03125h-16.03125zm0 0" fill="#fff"/><path d="m207.40625 399.78125h144.28125v-399.78125h-239.46875v112.21875h-112.21875v399.78125h239.46875v-95.6875h-15.03125v48.59375h-17.03125zm-80.15625-384.75h209.40625v369.71875h-209.40625zm65.125 384.75v65.125h-145.28125v-305.59375h48.59375v-15.03125h-48.59375v-17.03125h65.125v272.53125zm0 80.15625v17.03125h-145.28125v-17.03125zm-160.3125-15.03125h-17.03125v-305.59375h17.03125zm0-337.65625v17.03125h-17.03125v-17.03125zm-17.03125 352.6875h17.03125v17.03125h-17.03125zm209.40625 0v17.03125h-17.03125v-17.03125zm0 0"/><path d="m159.3125 47.09375h152.796875v-15.03125h-167.828125v256h15.03125zm0 0"/><path d="m304.59375 352.6875h-160.8125v15.03125h175.84375v-256h-15.03125zm0 0"/><path d="m183.359375 296.078125h-15.03125v8.515625h-9.015625v-8.515625h-15.03125v47.59375h39.078125zm-24.046875 32.5625v-9.015625h9.015625v9.015625zm0 0"/><path d="m280.546875 103.703125h15.03125v-8.515625h9.015625v8.515625h15.03125v-47.59375h-39.078125zm24.046875-32.5625v9.015625h-9.015625v-9.015625zm0 0"/><path d="m207.90625 328.640625h16.03125v15.03125h-16.03125zm0 0"/><path d="m239.96875 328.640625h16.03125v15.03125h-16.03125zm0 0"/><path d="m127.75 440.859375h16.03125v15.03125h-16.03125zm0 0"/><path d="m207.90625 56.109375h16.03125v15.03125h-16.03125zm0 0"/><path d="m239.96875 56.109375h16.03125v15.03125h-16.03125zm0 0"/></svg>