<svg id="card_x5F_shuffle" enable-background="new 0 0 300 300" height="512" viewBox="0 0 300 300" width="512" xmlns="http://www.w3.org/2000/svg"><circle cx="122.566" cy="128.095" fill="#efefd2" r="92"/><path d="m161.413 237.582-64.963 29.264c-5.994 2.7-13.041.03-15.741-5.964l-46.424-103.057c-2.463-5.467-.027-11.896 5.44-14.358l64.962-29.264c5.994-2.7 13.041-.03 15.741 5.964l46.425 103.057c2.462 5.467.027 11.895-5.44 14.358z" fill="#fff"/><path d="m91.57 271.905c-1.902 0-3.809-.346-5.645-1.041-3.969-1.504-7.117-4.467-8.863-8.34l-46.426-103.056c-3.363-7.471-.023-16.285 7.449-19.648l64.957-29.264c7.992-3.602 17.43-.027 21.031 7.967l46.426 103.059c1.629 3.617 1.754 7.654.348 11.365s-4.172 6.652-7.789 8.281l-64.965 29.266c-2.086.939-4.304 1.411-6.523 1.411zm17.992-154.752c-1.082 0-2.184.223-3.23.695l-64.961 29.264c-3.449 1.553-4.992 5.623-3.438 9.07l46.426 103.057c.867 1.926 2.43 3.396 4.402 4.145 1.969.746 4.117.684 6.043-.184l64.965-29.266h.004c1.668-.752 2.945-2.109 3.594-3.822s.59-3.576-.164-5.244l-46.422-103.058c-1.317-2.922-4.203-4.657-7.219-4.657z" fill="#4c241d"/><path d="m84.566 56.095c-7.719 0-14-6.281-14-14s6.281-14 14-14 14 6.281 14 14-6.281 14-14 14zm0-20c-3.309 0-6 2.691-6 6s2.691 6 6 6 6-2.691 6-6-2.692-6-6-6z" fill="#4c241d"/><path d="m47.218 109.442c-1.023 0-2.047-.391-2.828-1.172-1.562-1.562-1.562-4.094 0-5.656l14.695-14.695c1.562-1.562 4.094-1.562 5.656 0s1.562 4.094 0 5.656l-14.695 14.695c-.781.782-1.804 1.172-2.828 1.172z" fill="#4c241d"/><path d="m61.914 109.442c-1.023 0-2.047-.391-2.828-1.172l-14.696-14.695c-1.562-1.562-1.562-4.094 0-5.656s4.094-1.562 5.656 0l14.695 14.695c1.562 1.562 1.562 4.094 0 5.656-.781.782-1.804 1.172-2.827 1.172z" fill="#4c241d"/><path d="m239.218 57.442c-1.023 0-2.047-.391-2.828-1.172-1.562-1.562-1.562-4.094 0-5.656l14.695-14.695c1.562-1.562 4.094-1.562 5.656 0s1.562 4.094 0 5.656l-14.695 14.695c-.781.782-1.804 1.172-2.828 1.172z" fill="#4c241d"/><path d="m253.914 57.442c-1.023 0-2.047-.391-2.828-1.172l-14.696-14.695c-1.562-1.562-1.562-4.094 0-5.656s4.094-1.562 5.656 0l14.695 14.695c1.562 1.562 1.562 4.094 0 5.656-.781.782-1.804 1.172-2.827 1.172z" fill="#4c241d"/><circle cx="124.669" cy="200.73" fill="#4c241d" r="4.251"/><path d="m88.975 169.814s-9.814 28.29-7.403 33.641c2.411 5.352 9.029 7.589 14.783 4.997 3.424-1.542 5.734-4.456 6.564-7.683 2.967 1.516 6.68 1.717 10.104.174 5.754-2.592 8.464-9.031 6.053-14.383-2.411-5.351-30.101-16.746-30.101-16.746z" fill="#f53e28"/><path d="m91.406 213.526c-5.719 0-11.086-3.113-13.48-8.426-2.668-5.92 3.41-25.471 7.273-36.596.359-1.039 1.133-1.885 2.133-2.336 1.004-.451 2.152-.473 3.168-.053 10.887 4.482 29.555 12.883 32.223 18.801 3.316 7.355-.301 16.182-8.055 19.674-3.059 1.375-6.383 1.752-9.512 1.141-1.625 2.76-4.102 4.99-7.156 6.367-2.153.969-4.399 1.428-6.594 1.428zm-.012-38.347c-3.75 11.486-6.891 24.02-6.129 26.754 1.445 3.209 5.715 4.551 9.445 2.873 2.188-.986 3.766-2.818 4.332-5.031.301-1.178 1.125-2.152 2.23-2.652 1.109-.502 2.387-.469 3.465.084 2.035 1.041 4.453 1.078 6.645.092 3.73-1.682 5.547-5.762 4.047-9.094-1.492-2.28-12.953-8.222-24.035-13.026z" fill="#4c241d"/><path d="m188.65 207.673-71.064 5.138c-6.557.474-12.256-4.457-12.73-11.013l-8.151-112.737c-.432-5.981 4.065-11.179 10.046-11.612l71.064-5.138c6.557-.474 12.256 4.457 12.73 11.013l8.151 112.737c.433 5.981-4.065 11.179-10.046 11.612z" fill="#fff"/><g fill="#4c241d"><path d="m116.718 216.843c-8.25 0-15.246-6.398-15.852-14.756l-8.148-112.738c-.594-8.17 5.57-15.297 13.742-15.891l71.066-5.137c8.805-.623 16.375 5.969 17.008 14.713l8.148 112.738c.289 3.959-.984 7.791-3.578 10.793-2.598 3-6.207 4.811-10.164 5.098l-71.066 5.139c-.386.027-.773.041-1.156.041zm61.961-140.563c-.188 0-.383.006-.574.021l-71.066 5.137c-1.828.131-3.492.967-4.691 2.352-1.195 1.385-1.785 3.154-1.652 4.98l8.148 112.738c.316 4.346 4.164 7.611 8.453 7.312l71.066-5.139c1.828-.131 3.492-.967 4.691-2.352 1.195-1.385 1.785-3.154 1.652-4.98l-8.148-112.738c-.305-4.151-3.777-7.331-7.879-7.331z"/><circle cx="187.179" cy="196.21" r="4.251"/><path d="m112.32 115.954c-2.078 0-3.832-1.605-3.984-3.711l-1.508-20.836c-.16-2.203 1.496-4.119 3.699-4.279 2.168-.119 4.117 1.496 4.277 3.701l1.508 20.836c.16 2.203-1.496 4.119-3.699 4.279-.098.006-.196.01-.293.01z"/><path d="m111.804 108.694c-1.223 0-2.43-.559-3.215-1.615-1.316-1.773-.949-4.277.824-5.596l9.938-7.383c1.777-1.322 4.277-.947 5.598.826 1.316 1.773.949 4.277-.824 5.596l-9.938 7.383c-.719.533-1.555.789-2.383.789z"/><path d="m122.738 115.202c-.906 0-1.816-.307-2.566-.936l-11.148-9.35c-1.691-1.42-1.914-3.941-.496-5.635 1.422-1.689 3.941-1.914 5.637-.494l11.148 9.35c1.691 1.42 1.914 3.941.496 5.635-.794.944-1.927 1.43-3.071 1.43z"/><path d="m56.429 170.024c-3.395 0-6.641-1.951-8.121-5.238l-.273-.607c-.973-2.164-1.047-4.578-.207-6.799s2.496-3.982 4.66-4.957l.605-.271c4.473-2.016 9.75-.012 11.762 4.453l2.281 5.064c.906 2.014.008 4.381-2.004 5.289l-5.066 2.283c-1.184.531-2.418.783-3.637.783zm.317-10.66c-.125 0-.246.025-.367.08l-.602.27c-.277.127-.406.342-.469.498-.059.158-.102.404.023.68l.273.609c.199.445.723.648 1.176.445l1.418-.639-.641-1.418c-.147-.329-.472-.525-.811-.525z"/><path d="m60.863 179.448c-2.047 0-4.07-.686-5.738-2.016-1.727-1.377-2.012-3.895-.637-5.621 1.371-1.729 3.898-2.014 5.621-.637.285.225.758.383 1.266.16.613-.277.887-1.004.609-1.621l-3.574-7.934c-.906-2.014-.008-4.383 2.004-5.289 2.027-.912 4.383-.008 5.293 2.004l3.574 7.936c2.086 4.639.012 10.111-4.625 12.197-1.219.552-2.512.821-3.793.821z"/><path d="m147.808 173.372c-2.121 0-3.891-1.67-3.992-3.812l-.816-17.391c-.102-2.207 1.602-4.08 3.809-4.184 2.25-.031 4.082 1.604 4.184 3.809l.816 17.391c.102 2.207-1.602 4.08-3.809 4.184-.063.001-.129.003-.192.003z"/></g><path d="m155.089 136.242c-.019.001-.037.007-.056.008 1.365-1.847 2.154-4.081 2.041-6.484-.274-5.863-5.606-10.377-11.91-10.083-6.303.295-11.191 5.286-10.917 11.149.112 2.404 1.106 4.554 2.637 6.266-.019.001-.037-.004-.057-.003-6.304.295-11.192 5.286-10.918 11.149s5.606 10.377 11.91 10.083c3.751-.175 6.971-2.035 8.93-4.731 2.202 2.501 5.581 4.053 9.332 3.878 6.303-.295 11.191-5.286 10.917-11.149s-5.606-10.378-11.909-10.083z" fill="#6b4f5b"/><path d="m137.23 162.341c-3.781 0-7.383-1.297-10.211-3.691-3.109-2.631-4.922-6.26-5.105-10.219-.285-6.1 3.434-11.523 8.941-13.971-.344-1.109-.551-2.262-.605-3.439-.375-8.059 6.23-14.936 14.727-15.334 4.09-.172 7.965 1.115 10.988 3.676 3.109 2.631 4.922 6.258 5.105 10.217.055 1.178-.039 2.344-.281 3.482 5.715 1.924 9.922 6.979 10.207 13.078.375 8.055-6.23 14.932-14.727 15.33-3.324.17-6.562-.709-9.266-2.438-2.527 1.971-5.652 3.133-8.996 3.291-.258.012-.519.018-.777.018zm-.449-21.244c-3.883.211-7.047 3.326-6.875 6.963.078 1.713.891 3.305 2.281 4.482 1.473 1.25 3.395 1.855 5.445 1.789 2.391-.111 4.535-1.236 5.883-3.088.715-.98 1.836-1.586 3.047-1.643 1.184-.043 2.383.441 3.188 1.352 1.516 1.717 3.777 2.631 6.145 2.525 4.09-.191 7.281-3.316 7.109-6.967-.168-3.617-3.648-6.408-7.613-6.279-1.719.188-3.203-.73-3.934-2.184-.68-1.348-.539-2.965.359-4.18.621-.838 1.344-2.197 1.262-3.916-.078-1.713-.891-3.307-2.281-4.484-1.477-1.252-3.453-1.898-5.445-1.789-4.09.191-7.281 3.316-7.109 6.969.082 1.719.926 3.008 1.621 3.785 1.055 1.176 1.316 2.859.672 4.299-.662 1.467-1.958 2.465-3.755 2.366z" fill="#4c241d"/><path d="m229.735 250.173-69.656-14.986c-6.427-1.383-10.516-7.713-9.133-14.14l23.774-110.503c1.261-5.862 7.036-9.592 12.898-8.331l69.656 14.986c6.427 1.383 10.516 7.713 9.133 14.14l-23.774 110.503c-1.261 5.862-7.036 9.592-12.898 8.331z" fill="#fff"/><path d="m232.019 254.417c-1.031 0-2.078-.107-3.125-.334l-69.652-14.986c-8.57-1.842-14.047-10.316-12.207-18.889l23.777-110.506c.832-3.877 3.125-7.201 6.461-9.354 3.332-2.156 7.293-2.889 11.188-2.045l69.652 14.986c8.574 1.844 14.047 10.318 12.203 18.891l-23.773 110.504c-1.497 6.96-7.672 11.733-14.524 11.733zm-46.699-148.449c-1.305 0-2.582.375-3.707 1.1-1.535.994-2.594 2.527-2.98 4.316l-23.778 110.506c-.914 4.258 1.809 8.471 6.066 9.387l69.652 14.986c3.703.783 7.355-1.562 8.148-5.262l23.773-110.504c.445-2.062.059-4.176-1.09-5.947-1.145-1.773-2.91-2.994-4.973-3.439l-69.656-14.986c-.483-.104-.971-.157-1.455-.157z" fill="#4c241d"/><circle cx="231.536" cy="238.758" fill="#4c241d" r="4.251"/><circle cx="191.536" cy="38.758" fill="#4c241d" r="4.251"/><circle cx="171.536" cy="258.758" fill="#4c241d" r="4.251"/><circle cx="259.536" cy="90.758" fill="#4c241d" r="4.251"/><path d="m201.488 205.356c-.277 0-.562-.029-.844-.09-2.16-.465-3.535-2.592-3.07-4.752l3.66-17.02c.461-2.156 2.594-3.531 4.75-3.068 2.16.465 3.535 2.592 3.07 4.752l-3.66 17.02c-.402 1.875-2.063 3.158-3.906 3.158z" fill="#4c241d"/><path d="m211.631 152.644s-24.684 16.95-25.919 22.688 2.766 11.466 8.935 12.793c3.671.79 7.259-.185 9.843-2.29 1.489 2.981 4.359 5.346 8.03 6.135 6.169 1.327 12.171-2.248 13.406-7.987 1.235-5.738-14.295-31.339-14.295-31.339z" fill="#6b4f5b"/><path d="m215.121 196.249c-1.145 0-2.297-.123-3.441-.369-3.277-.703-6.164-2.365-8.332-4.725-2.949 1.26-6.27 1.584-9.543.879-3.973-.854-7.41-3.113-9.68-6.361-2.332-3.34-3.156-7.311-2.32-11.186 1.363-6.344 17.855-18.475 27.562-25.141.906-.621 2.035-.844 3.105-.613 1.078.23 2.012.895 2.582 1.836 6.105 10.068 16.148 27.91 14.781 34.256-.832 3.873-3.219 7.154-6.715 9.238-2.421 1.442-5.179 2.186-7.999 2.186zm-10.629-14.414c.281 0 .562.029.844.09 1.188.256 2.191 1.037 2.734 2.123 1.023 2.045 2.949 3.508 5.289 4.012 2 .426 4.008.119 5.668-.869 1.566-.934 2.629-2.371 2.988-4.049.148-2.721-5.551-14.303-11.621-24.746-9.828 7.023-19.789 15.248-20.805 17.9-.328 1.555.051 3.301 1.094 4.795 1.105 1.586 2.812 2.693 4.805 3.123 2.332.5 4.707-.033 6.477-1.48.722-.587 1.616-.899 2.527-.899z" fill="#4c241d"/><path d="m197.945 141.265c-1.965 0-3.676-1.445-3.957-3.445l-1.316-9.396-5.137 8.658c-1.133 1.9-3.582 2.531-5.484 1.398-1.898-1.127-2.523-3.582-1.398-5.48l10.961-18.465c.867-1.461 2.551-2.209 4.23-1.881 1.664.336 2.938 1.686 3.172 3.367l2.895 20.689c.305 2.188-1.219 4.211-3.406 4.516-.189.027-.377.039-.56.039z" fill="#4c241d"/></svg>